<svg width="48" height="49" viewBox="0 0 48 49" fill="none" xmlns="http://www.w3.org/2000/svg">
<rect y="0.5" width="48" height="48" rx="8" fill="#F0F2F5"/>
<g clip-path="url(#clip0_102_22)">
<path fill-rule="evenodd" clip-rule="evenodd" d="M32.25 17.75H28.5V17C28.5 15.7574 27.4926 14.75 26.25 14.75H21.75C20.5074 14.75 19.5 15.7574 19.5 17V17.75H15.75C14.9216 17.75 14.25 18.4216 14.25 19.25V31.25C14.25 32.0784 14.9216 32.75 15.75 32.75H32.25C33.0784 32.75 33.75 32.0784 33.75 31.25V19.25C33.75 18.4216 33.0784 17.75 32.25 17.75V17.75ZM21 17C21 16.5858 21.3358 16.25 21.75 16.25H26.25C26.6642 16.25 27 16.5858 27 17V17.75H21V17ZM32.25 19.25V23.1509C29.7185 24.5289 26.8822 25.2505 24 25.25C21.1179 25.2505 18.2816 24.5292 15.75 23.1519V19.25H32.25ZM32.25 31.25H15.75V24.8413C18.3187 26.0977 21.1405 26.7506 24 26.75C26.8596 26.7501 29.6813 26.0969 32.25 24.8403V31.25V31.25ZM21.75 23C21.75 22.5858 22.0858 22.25 22.5 22.25H25.5C25.9142 22.25 26.25 22.5858 26.25 23C26.25 23.4142 25.9142 23.75 25.5 23.75H22.5C22.0858 23.75 21.75 23.4142 21.75 23V23Z" fill="#121417"/>
</g>
<defs>
<clipPath id="clip0_102_22">
<rect width="24" height="24" fill="white" transform="translate(12 12.5)"/>
</clipPath>
</defs>
</svg>
